<?xml version="1.0" encoding="UTF-8" standalone="no"?>
<!-- Uploaded to: SVG Repo, www.svgrepo.com, Generator: SVG Repo Mixer Tools -->

<svg
   version="1.1"
   id="Layer_1"
   viewBox="0 0 512 512"
   xml:space="preserve"
   sodipodi:docname="favicon.svg"
   inkscape:version="1.4.2 (f4327f4, 2025-05-13)"
   inkscape:export-filename="favicon.png"
   inkscape:export-xdpi="96"
   inkscape:export-ydpi="96"
   xmlns:inkscape="http://www.inkscape.org/namespaces/inkscape"
   xmlns:sodipodi="http://sodipodi.sourceforge.net/DTD/sodipodi-0.dtd"
   xmlns="http://www.w3.org/2000/svg"
   xmlns:svg="http://www.w3.org/2000/svg"><defs
   id="defs20" /><sodipodi:namedview
   id="namedview20"
   pagecolor="#ffffff"
   bordercolor="#000000"
   borderopacity="0.25"
   inkscape:showpageshadow="2"
   inkscape:pageopacity="0.0"
   inkscape:pagecheckerboard="0"
   inkscape:deskcolor="#d1d1d1"
   inkscape:zoom="0.50097656"
   inkscape:cx="50.900585"
   inkscape:cy="460.10136"
   inkscape:window-width="1366"
   inkscape:window-height="715"
   inkscape:window-x="1016"
   inkscape:window-y="-8"
   inkscape:window-maximized="1"
   inkscape:current-layer="Layer_1" />













<g
   id="g20"
   transform="matrix(0.87524366,0,0,0.87524366,31.937623,31.937623)"><g
     id="g3">
	<rect
   x="49.974998"
   y="86.060997"
   style="fill:#57555c"
   width="353.09201"
   height="95.714996"
   id="rect1" />
	<rect
   x="49.974998"
   y="228.854"
   style="fill:#57555c"
   width="353.09201"
   height="95.705002"
   id="rect2" />
	<rect
   x="49.974998"
   y="371.647"
   style="fill:#57555c"
   width="353.09201"
   height="95.705002"
   id="rect3" />
</g><g
     id="g6">
	<rect
   x="226.511"
   y="86.060997"
   style="fill:#3c3a41"
   width="176.55099"
   height="95.714996"
   id="rect4" />
	<rect
   x="226.511"
   y="228.854"
   style="fill:#3c3a41"
   width="176.55099"
   height="95.705002"
   id="rect5" />
	<rect
   x="226.511"
   y="371.647"
   style="fill:#3c3a41"
   width="176.55099"
   height="95.705002"
   id="rect6" />
</g><rect
     x="23.132999"
     style="fill:#ffb74d"
     width="406.767"
     height="120.971"
     id="rect7"
     y="0" /><g
     id="g9">
	<rect
   x="59.708"
   y="43.965"
   style="fill:#ffffff"
   width="23.235001"
   height="24.177999"
   id="rect8" />
	<rect
   x="101.508"
   y="43.965"
   style="fill:#ffffff"
   width="23.235001"
   height="24.177999"
   id="rect9" />
</g><rect
     x="23.132999"
     y="156.22701"
     style="fill:#ffb74d"
     width="406.767"
     height="120.971"
     id="rect10" /><g
     id="g12">
	<rect
   x="59.708"
   y="199.964"
   style="fill:#ffffff"
   width="23.235001"
   height="24.177999"
   id="rect11" />
	<rect
   x="101.508"
   y="199.964"
   style="fill:#ffffff"
   width="23.235001"
   height="24.177999"
   id="rect12" />
</g><rect
     x="23.132999"
     y="312.444"
     style="fill:#ffb74d"
     width="406.767"
     height="120.982"
     id="rect13" /><g
     id="g15">
	<rect
   x="59.708"
   y="360.85101"
   style="fill:#ffffff"
   width="23.235001"
   height="24.177999"
   id="rect14" />
	<rect
   x="101.508"
   y="360.85101"
   style="fill:#ffffff"
   width="23.235001"
   height="24.177999"
   id="rect15" />
</g><g
     id="g18">
	<rect
   x="226.511"
   style="fill:#ffa91e"
   width="203.38901"
   height="120.971"
   id="rect16"
   y="0" />
	<rect
   x="226.511"
   y="156.22701"
   style="fill:#ffa91e"
   width="203.38901"
   height="120.971"
   id="rect17" />
	<rect
   x="226.511"
   y="312.444"
   style="fill:#ffa91e"
   width="203.38901"
   height="120.982"
   id="rect18" />
</g><path
     style="fill:#0088ff;fill-opacity:1"
     d="M 488.867,406.379 C 488.867,464.713 441.58,512 383.246,512 c -0.251,0 -0.503,0 -0.754,-0.01 -28.533,-0.188 -54.365,-11.707 -73.255,-30.272 -16.963,-16.67 -28.324,-39.015 -30.994,-63.978 -0.398,-3.728 -0.618,-7.518 -0.618,-11.361 0,-31.654 13.937,-60.051 35.989,-79.412 0.241,-0.209 0.482,-0.419 0.723,-0.618 8.597,-7.413 18.408,-13.455 29.078,-17.811 12.073,-4.911 25.256,-7.675 39.078,-7.759 0.251,-0.01 0.503,-0.01 0.754,-0.01 58.333,0 105.62,47.276 105.62,105.61 z"
     id="path18" /><text
     xml:space="preserve"
     style="font-size:143.685px;font-family:Allura;-inkscape-font-specification:Allura;text-align:center;writing-mode:lr-tb;direction:ltr;text-anchor:middle;fill:#000000;stroke:#ffffff;stroke-width:12.728"
     x="379.36658"
     y="443.45514"
     id="text20"><tspan
       sodipodi:role="line"
       id="tspan20"
       x="379.36658"
       y="443.45514"
       style="stroke-width:12.728">32</tspan></text></g></svg>
